# xmcd
#
# Track frame offsets:
#	150
#	9590
#	21807
#	35607
#	47475
#	57477
#	69927
#	82340
#	93582
#	107142
#
# Disc length: 1594 seconds
#
# Revision: 0
# Processed by: cddbd v1.4PL0 Copyright (c) Steve Scherf et al.
# Submitted via: dBpowerAMP V4.0
#
DISCID=8106380a
DTITLE=Gladys Knight and The Pips - Every Beat Of My Heart
DYEAR=1900
DGENRE=Blues
TTITLE0=Every Beat Of My Heart
TTITLE1=Letters Full Of Tears
TTITLE2=Giving Up
TTITLE3=Lovers Always Forgive
TTITLE4=Operator
TTITLE5=Maybe, Maybe, Baby
TTITLE6=(There Will Never Be) Another Love
TTITLE7=How Do You Say Goodbye
TTITLE8=Queen Of Tears
TTITLE9=Come See About Me
EXTD=
EXTT0=
EXTT1=
EXTT2=
EXTT3=
EXTT4=
EXTT5=
EXTT6=
EXTT7=
EXTT8=
EXTT9=
PLAYORDER=
